# xmcd CD database file
#
# Track frame offsets:
#	150
#	19787
#	30480
#	59197
#	71393
#	101731
#	112317
#	131687
#	162303
#	173175
#	206536
#	228555
#	245313
#
# Disc length: 3487 seconds
#
# Revision: 1
# Processed by: cddbd v1.5.2PL0 Copyright (c) Steve Scherf et al.
# Submitted via: CDex 1.70beta2
#
DISCID=ba0d9d0d
DTITLE=Gary Peacock and Marc Copland - Insight
DYEAR=2009
DGENRE=Jazz
TTITLE0=All Blues
TTITLE1=The Wanderer
TTITLE2=Blue In Green
TTITLE3=Rush Hour
TTITLE4=River's Run
TTITLE5=Matterhorn
TTITLE6=The Pond
TTITLE7=Goes Out Comes In
TTITLE8=Late Night
TTITLE9=Cavatina
TTITLE10=In Your Own Sweet Way
TTITLE11=Benediction
TTITLE12=Sweet And Lovely
EXTD=YEAR: 2009
EXTT0=
EXTT1=
EXTT2=
EXTT3=
EXTT4=
EXTT5=
EXTT6=
EXTT7=
EXTT8=
EXTT9=
EXTT10=
EXTT11=
EXTT12=
PLAYORDER=
